<svg width="512" height="512" viewBox="0 0 46 46" fill="none" xmlns="http://www.w3.org/2000/svg">
  <rect width="46" height="46" rx="23" fill="#002BFF"/>
  <path d="M25.3139 15.02L26.9939 15.23V30H25.5239L25.3639 28.61C24.9706 29.17 24.5172 29.58 24.0039 29.84C23.4972 30.1 22.9539 30.23 22.3739 30.23C21.4606 30.23 20.7072 30 20.1139 29.54C19.5206 29.08 19.0806 28.44 18.7939 27.62C18.5072 26.7933 18.3639 25.8367 18.3639 24.75C18.3639 23.6967 18.5272 22.7567 18.8539 21.93C19.1806 21.0967 19.6506 20.4433 20.2639 19.97C20.8839 19.49 21.6272 19.25 22.4939 19.25C23.1006 19.25 23.6339 19.3567 24.0939 19.57C24.5539 19.7767 24.9606 20.0833 25.3139 20.49V15.02ZM22.9339 20.6C22.0539 20.6 21.3772 20.9433 20.9039 21.63C20.4306 22.3167 20.1939 23.3567 20.1939 24.75C20.1939 25.6567 20.2906 26.4167 20.4839 27.03C20.6772 27.6433 20.9606 28.1033 21.3339 28.41C21.7139 28.7167 22.1772 28.87 22.7239 28.87C23.3239 28.87 23.8339 28.7 24.2539 28.36C24.6806 28.02 25.0339 27.6367 25.3139 27.21V21.95C25.0272 21.5233 24.6806 21.1933 24.2739 20.96C23.8672 20.72 23.4206 20.6 22.9339 20.6Z" fill="white"/>
</svg>
